<?xml version="1.0" encoding="UTF-8" standalone="no"?> <svg width="64" height="64" viewBox="0 0 64 64" fill="none" xmlns="http://www.w3.org/2000/svg">
<path d="M61 15V57C61 58.0609 60.5786 59.0783 59.8284 59.8284C59.0783 60.5786 58.0609 61 57 61H27V58.9C26.9987 58.2542 26.8941 57.6127 26.69 57H56C56.2652 57 56.5196 56.8946 56.7071 56.7071C56.8946 56.5196 57 56.2652 57 56V16C57 15.7348 56.8946 15.4804 56.7071 15.2929C56.5196 15.1054 56.2652 15 56 15H51V14C51.0003 13.4319 50.8791 12.8703 50.6446 12.3529C50.41 11.8354 50.0675 11.3742 49.64 11H57C58.0609 11 59.0783 11.4214 59.8284 12.1716C60.5786 12.9217 61 13.9391 61 15Z" fill="#BDDBFF"/>
<path d="M57 49L49 57V51C49.0016 50.4701 49.2128 49.9623 49.5875 49.5875C49.9623 49.2128 50.4701 49.0016 51 49H57Z" fill="#BDDBFF"/>
<path d="M49.64 11C48.9108 10.3569 47.9723 10.0014 47 10H44V7C44 5.93913 43.5786 4.92172 42.8284 4.17157C42.0783 3.42143 41.0609 3 40 3C38.9391 3 37.9217 3.42143 37.1716 4.17157C36.4214 4.92172 36 5.93913 36 7V10H33C31.9399 10.0024 30.9238 10.4246 30.1742 11.1742C29.4246 11.9238 29.0024 12.9399 29 14V16H51V14C51.0003 13.4319 50.8791 12.8703 50.6446 12.3529C50.41 11.8354 50.0675 11.3742 49.64 11V11Z" fill="#BDDBFF"/>
<path d="M36.28 26.72C36.7902 27.4554 37.0389 28.3406 36.9866 29.2341C36.9342 30.1276 36.5836 30.9777 35.991 31.6484C35.3984 32.3192 34.598 32.7718 33.7178 32.9339C32.8376 33.0959 31.9284 32.9581 31.1358 32.5425C30.3431 32.1268 29.7128 31.4573 29.3456 30.6411C28.9784 29.8249 28.8955 28.9091 29.1103 28.0402C29.325 27.1714 29.825 26.3996 30.5301 25.8484C31.2353 25.2973 32.105 24.9985 33 25C33.6447 25.0018 34.2795 25.1591 34.8505 25.4585C35.4215 25.758 35.9119 26.1907 36.28 26.72Z" fill="#BDDBFF"/>
<path d="M36.28 40.72C36.7902 41.4554 37.0389 42.3406 36.9866 43.2341C36.9342 44.1276 36.5836 44.9777 35.991 45.6484C35.3984 46.3192 34.598 46.7718 33.7178 46.9339C32.8376 47.0959 31.9284 46.9581 31.1358 46.5425C30.3431 46.1268 29.7128 45.4573 29.3456 44.6411C28.9784 43.8249 28.8955 42.9091 29.1103 42.0402C29.325 41.1714 29.825 40.3996 30.5301 39.8484C31.2353 39.2973 32.105 38.9985 33 39C33.6447 39.0018 34.2795 39.1591 34.8505 39.4585C35.4215 39.758 35.9119 40.1907 36.28 40.72Z" fill="#BDDBFF"/>
<path d="M30.36 11C29.9325 11.3742 29.59 11.8354 29.3554 12.3529C29.1209 12.8703 28.9997 13.4319 29 14V15H24C23.7348 15 23.4804 15.1054 23.2929 15.2929C23.1054 15.4804 23 15.7348 23 16V39C22.6487 39.0006 22.3038 39.0937 22 39.27V36C22.0024 35.0804 21.8224 34.1694 21.4705 33.3198C21.1187 32.4701 20.6019 31.6987 19.95 31.05C19.659 30.7572 19.3409 30.4927 19 30.26V15C19 13.9391 19.4214 12.9217 20.1716 12.1716C20.9217 11.4214 21.9391 11 23 11H30.36Z" fill="#BDDBFF"/>
<path d="M23 43V53.22L20.7 52.2L19 51.44V47.74C19.8312 47.1691 20.5271 46.4228 21.0385 45.5537C21.55 44.6846 21.8645 43.7139 21.96 42.71C22.2741 42.8988 22.6335 42.999 23 43Z" fill="#BDDBFF"/>
<path d="M26.69 57C26.4258 56.2107 26.0004 55.4849 25.441 54.8687C24.8815 54.2524 24.2001 53.7591 23.44 53.42L23 53.22L20.7 52.2L20 55L19 54.67L17 54L16.18 54.82L18 61H27V58.9C26.9987 58.2542 26.8941 57.6127 26.69 57V57Z" fill="#BDDBFF"/>
<path d="M19 51.44L18 51L16 52L17 54L19 54.67L20 55L20.7 52.2L19 51.44Z" fill="#BDDBFF"/>
<path d="M19.95 31.05C19.659 30.7572 19.3409 30.4927 19 30.26C17.83 29.4346 16.4319 28.9942 15 29C13.1435 29 11.363 29.7375 10.0503 31.0502C8.7375 32.363 8 34.1435 8 36V38H14C15.0609 38 16.0783 37.5786 16.8284 36.8284C17.5786 36.0783 18 35.0609 18 34L18.43 35.73C18.5316 36.1451 18.7266 36.5316 19 36.86C19.278 37.2151 19.6331 37.5023 20.0386 37.6998C20.444 37.8973 20.889 38 21.34 38H22V36C22.0024 35.0804 21.8224 34.1694 21.4705 33.3198C21.1187 32.4701 20.6019 31.6987 19.95 31.05V31.05Z" fill="#BDDBFF"/>
<path d="M14 52L13 54L9.99999 55L9.29999 52.2L12 51L14 52Z" fill="#BDDBFF"/>
<path d="M13.82 54.82L12 61H3V58.9C3.00028 57.7402 3.33669 56.6054 3.9685 55.6328C4.60031 54.6602 5.50046 53.8916 6.56 53.42L9.3 52.2L10 55L13 54L13.82 54.82Z" fill="#BDDBFF"/>
<path d="M13 40H11V42H13V40Z" fill="#3D9AE2"/>
<path d="M19 40H17V42H19V40Z" fill="#3D9AE2"/>
<path d="M23.846 52.506L19 50.351V48.907C19.9236 48.3759 20.7314 47.665 21.3755 46.8163C22.0196 45.9677 22.487 44.9984 22.75 43.966C22.834 43.973 22.915 44 23 44C23.7956 44 24.5587 43.6839 25.1213 43.1213C25.6839 42.5587 26 41.7956 26 41C26 40.2044 25.6839 39.4413 25.1213 38.8787C24.5587 38.3161 23.7956 38 23 38V36C23 33.8783 22.1571 31.8434 20.6569 30.3431C19.1566 28.8429 17.1217 28 15 28C12.8783 28 10.8434 28.8429 9.34315 30.3431C7.84285 31.8434 7 33.8783 7 36V38C6.20435 38 5.44129 38.3161 4.87868 38.8787C4.31607 39.4413 4 40.2044 4 41C4 41.7956 4.31607 42.5587 4.87868 43.1213C5.44129 43.6839 6.20435 44 7 44C7.085 44 7.167 43.973 7.252 43.965C7.60382 45.3618 8.32624 46.6377 9.343 47.658C9.83859 48.1408 10.3957 48.556 11 48.893V50.351L6.154 52.506C4.91764 53.0562 3.86726 53.953 3.13001 55.0878C2.39277 56.2226 2.00026 57.5467 2 58.9V61C2 61.2652 2.10536 61.5196 2.29289 61.7071C2.48043 61.8946 2.73478 62 3 62H27C27.2652 62 27.5196 61.8946 27.7071 61.7071C27.8946 61.5196 28 61.2652 28 61V58.9C27.9997 57.5467 27.6072 56.2226 26.87 55.0878C26.1327 53.953 25.0824 53.0562 23.846 52.506V52.506ZM19.526 52.773L19.292 53.71L17.709 53.182L17.342 52.447L18.025 52.106L19.526 52.773ZM15 50C15.6751 49.9983 16.3472 49.9103 17 49.738V50.382L15.764 51H14.236L13 50.382V49.738C13.6528 49.9102 14.3249 49.9983 15 50V50ZM14.217 53.8L14.617 53H15.381L15.781 53.8L15 54.586L14.217 53.8ZM14.305 56.712C14.4902 56.8946 14.7399 56.997 15 56.997C15.2601 56.997 15.5098 56.8946 15.695 56.712L16.663 60H13.337L14.305 56.712ZM24 41C24 41.2652 23.8946 41.5196 23.7071 41.7071C23.5196 41.8946 23.2652 42 23 42V40C23.2652 40 23.5196 40.1054 23.7071 40.2929C23.8946 40.4804 24 40.7348 24 41ZM15 30C16.5908 30.0016 18.116 30.6342 19.2409 31.7591C20.3658 32.884 20.9984 34.4092 21 36V36.97C20.6181 36.9041 20.2636 36.7287 19.9795 36.465C19.6955 36.2014 19.4941 35.8609 19.4 35.485L18.968 33.757C18.9071 33.5221 18.7629 33.3174 18.5623 33.1809C18.3617 33.0445 18.1182 32.9856 17.8774 33.0154C17.6366 33.0451 17.4148 33.1614 17.2534 33.3425C17.092 33.5237 17.0019 33.7574 17 34C17 34.7956 16.6839 35.5587 16.1213 36.1213C15.5587 36.6839 14.7956 37 14 37H9V36C9.00159 34.4092 9.63424 32.884 10.7591 31.7591C11.884 30.6342 13.4092 30.0016 15 30V30ZM6 41C6 40.7348 6.10536 40.4804 6.29289 40.2929C6.48043 40.1054 6.73478 40 7 40V42C6.73478 42 6.48043 41.8946 6.29289 41.7071C6.10536 41.5196 6 41.2652 6 41ZM9.031 42.58C9.0085 42.3875 8.99814 42.1938 9 42V39H14C14.7571 38.9996 15.5042 38.8273 16.185 38.4961C16.8657 38.1649 17.4624 37.6834 17.93 37.088C18.2572 37.6221 18.7057 38.0716 19.2391 38.4C19.7725 38.7284 20.3758 38.9264 21 38.978V42C21.0017 42.2052 20.9897 42.4104 20.964 42.614C20.8648 43.5688 20.538 44.4859 20.0111 45.2882C19.4841 46.0905 18.7722 46.7547 17.9354 47.2249C17.0985 47.6952 16.1611 47.9578 15.2017 47.9907C14.2424 48.0236 13.2891 47.8258 12.422 47.414C11.8027 47.1246 11.2392 46.7285 10.757 46.244C9.77376 45.2601 9.16353 43.9647 9.031 42.58V42.58ZM11.975 52.106L12.658 52.447L12.291 53.182L10.708 53.71L10.474 52.773L11.975 52.106ZM4 58.9C4.00011 57.9335 4.28032 56.9878 4.80671 56.1773C5.3331 55.3668 6.08312 54.7262 6.966 54.333L8.619 53.6L9.03 55.244C9.08436 55.4601 9.20932 55.6518 9.38505 55.7887C9.56077 55.9257 9.77721 56.0001 10 56C10.1074 55.9999 10.214 55.9827 10.316 55.949L12.676 55.162L11.252 60H4V58.9ZM26 60H18.748L17.324 55.162L19.684 55.949C19.786 55.9827 19.8926 55.9999 20 56C20.2229 56 20.4395 55.9255 20.6152 55.7883C20.791 55.6512 20.9158 55.4592 20.97 55.243L21.381 53.599L23.034 54.334C23.9167 54.7271 24.6666 55.3675 25.193 56.1779C25.7194 56.9882 25.9997 57.9337 26 58.9V60Z" fill="#3D9AE2"/>
<path d="M57 10H49.969C49.1136 9.35414 48.0718 9.00324 47 9H45V7C45 5.67392 44.4732 4.40215 43.5355 3.46447C42.5979 2.52678 41.3261 2 40 2C38.6739 2 37.4021 2.52678 36.4645 3.46447C35.5268 4.40215 35 5.67392 35 7V9H33C31.9282 9.00324 30.8864 9.35414 30.031 10H23C21.6744 10.0016 20.4036 10.5289 19.4662 11.4662C18.5289 12.4036 18.0016 13.6744 18 15V27H20V15C20 14.2044 20.3161 13.4413 20.8787 12.8787C21.4413 12.3161 22.2044 12 23 12H28.424C28.145 12.6299 28.0006 13.3111 28 14H24C23.4696 14 22.9609 14.2107 22.5858 14.5858C22.2107 14.9609 22 15.4696 22 16V30H24V16H28V19C28 19.2652 28.1054 19.5196 28.2929 19.7071C28.4804 19.8946 28.7348 20 29 20H51C51.2652 20 51.5196 19.8946 51.7071 19.7071C51.8946 19.5196 52 19.2652 52 19V16H56V48H51C50.2044 48 49.4413 48.3161 48.8787 48.8787C48.3161 49.4413 48 50.2044 48 51V56H30V58H56C56.5304 58 57.0391 57.7893 57.4142 57.4142C57.7893 57.0391 58 56.5304 58 56V16C58 15.4696 57.7893 14.9609 57.4142 14.5858C57.0391 14.2107 56.5304 14 56 14H52C51.9994 13.3111 51.855 12.6299 51.576 12H57C57.7956 12 58.5587 12.3161 59.1213 12.8787C59.6839 13.4413 60 14.2044 60 15V57C60 57.7956 59.6839 58.5587 59.1213 59.1213C58.5587 59.6839 57.7956 60 57 60H30V62H57C58.3256 61.9984 59.5964 61.4711 60.5338 60.5338C61.4711 59.5964 61.9984 58.3256 62 57V15C61.9984 13.6744 61.4711 12.4036 60.5338 11.4662C59.5964 10.5289 58.3256 10.0016 57 10V10ZM50 51C50 50.7348 50.1054 50.4804 50.2929 50.2929C50.4804 50.1054 50.7348 50 51 50H54.586L50 54.586V51ZM51.414 56L56 51.414V56H51.414ZM33 11H36C36.2652 11 36.5196 10.8946 36.7071 10.7071C36.8946 10.5196 37 10.2652 37 10V7C37 6.20435 37.3161 5.44129 37.8787 4.87868C38.4413 4.31607 39.2044 4 40 4C40.7956 4 41.5587 4.31607 42.1213 4.87868C42.6839 5.44129 43 6.20435 43 7V10C43 10.2652 43.1054 10.5196 43.2929 10.7071C43.4804 10.8946 43.7348 11 44 11H47C47.7956 11 48.5587 11.3161 49.1213 11.8787C49.6839 12.4413 50 13.2044 50 14V15H30V14C30 13.2044 30.3161 12.4413 30.8787 11.8787C31.4413 11.3161 32.2044 11 33 11V11ZM30 18V17H50V18H30Z" fill="#3D9AE2"/>
<path d="M24 47H22V50H24V47Z" fill="#3D9AE2"/>
<path d="M41 6H39V8H41V6Z" fill="#3D9AE2"/>
<path d="M37.293 24.293L36.307 25.279C35.376 24.4525 34.1714 24.0009 32.9266 24.0117C31.6817 24.0225 30.4851 24.4949 29.5686 25.3375C28.6522 26.18 28.081 27.3327 27.9657 28.5723C27.8505 29.8119 28.1994 31.0501 28.9449 32.0471C29.6904 33.0442 30.7794 33.7291 32.0009 33.9691C33.2225 34.2092 34.4896 33.9874 35.557 33.3467C36.6244 32.7059 37.416 31.6918 37.7784 30.5008C38.1409 29.3098 38.0484 28.0267 37.519 26.9L38.707 25.712L37.293 24.293ZM36 29C36 29.5933 35.824 30.1734 35.4944 30.6667C35.1648 31.1601 34.6962 31.5446 34.148 31.7716C33.5999 31.9987 32.9967 32.0581 32.4147 31.9424C31.8328 31.8266 31.2982 31.5409 30.8787 31.1213C30.4591 30.7018 30.1734 30.1672 30.0576 29.5853C29.9419 29.0033 30.0013 28.4001 30.2283 27.8519C30.4554 27.3038 30.8399 26.8352 31.3333 26.5056C31.8266 26.1759 32.4066 26 33 26C33.6927 26.0029 34.3626 26.2477 34.894 26.692L32.294 29.292L33.708 30.706L35.947 28.467C35.9805 28.6427 35.9982 28.8211 36 29V29Z" fill="#3D9AE2"/>
<path d="M38 43C37.9961 42.2731 37.8319 41.5561 37.519 40.9L38.707 39.712L37.293 38.298L36.307 39.284C35.451 38.5319 34.363 38.0962 33.2245 38.0494C32.0861 38.0026 30.966 38.3476 30.0512 39.0269C29.1363 39.7062 28.4821 40.6787 28.1977 41.7821C27.9133 42.8854 28.0158 44.053 28.4882 45.0899C28.9607 46.1268 29.7743 46.9703 30.7936 47.4797C31.8128 47.9892 32.9759 48.1337 34.0888 47.8892C35.2017 47.6446 36.197 47.0259 36.9088 46.1361C37.6206 45.2464 38.0058 44.1394 38 43V43ZM30 43C30 42.2044 30.3161 41.4413 30.8787 40.8787C31.4413 40.3161 32.2044 40 33 40C33.6927 40.0029 34.3626 40.2477 34.894 40.692L32.294 43.292L33.708 44.706L35.947 42.467C36.0253 42.8785 36.0166 43.3018 35.9213 43.7097C35.8261 44.1177 35.6465 44.5011 35.3941 44.8354C35.1417 45.1697 34.8221 45.4474 34.4559 45.6507C34.0896 45.854 33.6849 45.9784 33.2677 46.0158C32.8505 46.0532 32.4301 46.0028 32.0335 45.8678C31.637 45.7329 31.2731 45.5164 30.9652 45.2323C30.6574 44.9482 30.4125 44.6028 30.2463 44.2184C30.08 43.8339 29.9961 43.4189 30 43V43Z" fill="#3D9AE2"/>
<path d="M52 30H42V32H52V30Z" fill="#3D9AE2"/>
<path d="M44 26H42V28H44V26Z" fill="#3D9AE2"/>
<path d="M52 26H46V28H52V26Z" fill="#3D9AE2"/>
<path d="M52 44H42V46H52V44Z" fill="#3D9AE2"/>
<path d="M44 40H42V42H44V40Z" fill="#3D9AE2"/>
<path d="M52 40H46V42H52V40Z" fill="#3D9AE2"/>
</svg>
